<svg xmlns="http://www.w3.org/2000/svg" viewBox="0 0 120 120">
    <g fill="#000">
        <path d="M42.968 20.392h-2.42l1.21 2.109-1.21 2.108h2.42l1.211 2.11 1.211-2.11h2.422l-1.21-2.109 1.21-2.109H45.39l-1.21-2.11zm31.876 0h-2.422l1.21 2.109-1.21 2.108h2.422l1.21 2.11 1.212-2.11h2.421l-1.21-2.109 1.21-2.109h-2.42l-1.213-2.11zM80.58 92.74c0 3.525-2.874 6.393-6.405 6.393h-28.82c-3.531 0-6.404-2.868-6.404-6.393V72.597c0-3.525 2.873-6.393 6.405-6.393h28.82c3.53 0 6.404 2.868 6.404 6.393v20.144zm10.123 5.74s-2.068-3.623-4.377-14.104c-2.126-9.651-1.355-19.21-1.355-19.21v-7.15h-4.113v3.773h-3.42v-3.773h-4.005v3.773h-3.448v-3.773h-4.137v3.773h-3.766v-3.773h-4.055v3.773h-3.765v-3.773h-4.138v3.773h-3.448v-3.773h-4.005v3.773h-3.423v-3.773h-4.687v7.15s.77 9.559-1.356 19.21c-2.308 10.48-4.377 14.105-4.377 14.105v4.216h61.875v-4.216z"/>
        <path d="M65.816 74.037h-1.631a.256.256 0 0 0-.257.256v17.072c0 .142.115.256.257.256h1.631c1.804 0 2.596-1.344 2.596-3.271V77.309c0-1.928-.792-3.272-2.596-3.272"/>
        <path d="M71.613 88.034c0 4.17-2.222 6.464-6.018 6.464h-4.612a.257.257 0 0 1-.257-.256V71.415c0-.14.115-.255.257-.255h4.612c3.796 0 6.018 2.294 6.018 6.464v10.41zM59.126 73.781a.257.257 0 0 1-.257.257h-3.586v20.204a.256.256 0 0 1-.256.256h-2.69a.256.256 0 0 1-.257-.256V74.038h-3.586a.257.257 0 0 1-.257-.257v-2.366c0-.14.116-.255.257-.255H58.87c.141 0 .257.115.257.255v2.366zm15.05-4.379h-28.82a3.198 3.198 0 0 0-3.202 3.196V92.74a3.199 3.199 0 0 0 3.202 3.197h28.82a3.199 3.199 0 0 0 3.201-3.197V72.598a3.198 3.198 0 0 0-3.201-3.196zm6.978-41.169v3.217h-1.698v-3.217H77.23v3.217h-1.437v-3.217h-2.31v3.217H71.96v-3.217h-2.213v6.335l.743.349h.017v21.076h12.08V34.916l.894-.347v-6.336zm-14.735 3.619c0-2.515-1.69-4.666-3.827-5.655l.124.006s.147-2.556-2.102-2.959v-2.752h1.809v-1.175h-1.809v-1.504h-1.12v1.504h-1.81v1.175h1.81v2.752c-2.25.403-2.102 2.96-2.102 2.96l.123-.007c-2.136.99-3.827 3.14-3.827 5.655h-.95v2.817l.72.246h.127v21.078h12.937V34.915h.126l.722-.246v-2.817h-.951zm-18.272-3.619v3.217h-1.52v-3.217h-2.313v3.217h-1.437v-3.217h-2.225v3.217h-1.699v-3.217h-2.327v6.335l.895.349v21.076h12.08V34.916h.017l.742-.347v-6.336z"/>
    </g>
</svg>