<svg xmlns="http://www.w3.org/2000/svg">
    <symbol id="skyline">
        <path d="M2284.3,695.3 L2226.9,548.1 L2226.9,514.3 C2226.9,512.4 2225.4,510.9 2223.5,510.9 C2222.9,510.9 2222.3,511.1 2221.8,511.4 C2221.3,511.1 2220.7,510.9 2220.1,510.9 C2218.2,510.9 2216.7,512.4 2216.7,514.3 L2216.7,535.2 L2129.1,632.7 L1951.6,391.5 L1951.6,331.3 C1951.6,328.2 1949.1,325.7 1946,325.7 C1945,325.7 1944,326 1943.2,326.5 C1942.4,326 1941.4,325.7 1940.4,325.7 C1937.3,325.7 1934.8,328.2 1934.8,331.3 L1934.8,382.8 L1771.5,584.4 C1753.3,582.8 1735.5,581.5 1718.2,580.2 L1718.2,468.4 L1709.5,469.1 L1709.5,436.6 L1652.8,455.6 L1652.8,443.3 L1596.1,462.3 L1596.1,477.9 L1580.1,479.1 L1580.1,721 L1570.7,721 L1561.4,439.2 L1582.6,439.2 L1590.1,435.2 L1590.1,429.7 L1586.4,429.7 L1593.9,425.7 L1593.9,420.2 L1590.2,420.2 L1597.7,416.2 L1597.7,410.7 L1560.4,403.2 L1559.2,366.4 L1561.8,366.4 L1606.6,352.9 L1606.6,341.2 L1558.5,341.2 L1558.2,316.1 L1573.4,316.1 L1573.4,312.6 L1558.2,312.6 L1558,295.6 L1580.8,295.6 L1580.8,292.1 L1557.9,292.1 L1557.7,275.1 L1578.9,275.1 L1578.9,271.6 L1557.7,271.6 L1557.5,254.6 L1577.1,254.6 L1577.1,251.1 L1557.5,251.1 L1557.3,234.1 L1575.2,234.1 L1575.2,230.6 L1557.2,230.6 L1557,213.6 L1573.3,213.6 L1573.3,210.1 L1557,210.1 L1556.3,145 L1564,145 L1564,141.5 L1556.3,141.5 L1555.6,75.3 L1560.3,75.3 L1560.3,71.8 L1555.5,71.8 L1554.7,0.4 L1550,0.4 L1549.2,71.8 L1544.4,71.8 L1544.4,75.3 L1549.1,75.3 L1548.4,141.5 L1540.7,141.5 L1540.7,145 L1548.4,145 L1547.7,210.1 L1531.4,210.1 L1531.4,213.6 L1547.7,213.6 L1547.5,230.6 L1529.5,230.6 L1529.5,234.1 L1547.4,234.1 L1547.2,251.1 L1527.6,251.1 L1527.6,254.6 L1547.2,254.6 L1547,271.6 L1525.8,271.6 L1525.8,275.1 L1547,275.1 L1546.8,292.1 L1523.9,292.1 L1523.9,295.6 L1546.7,295.6 L1546.5,312.6 L1531.3,312.6 L1531.3,316.1 L1546.5,316.1 L1546.2,341.2 L1498.1,341.2 L1498.1,352.9 L1542.9,366.4 L1547.2,366.4 L1545.8,403.2 L1544.3,403.2 L1507,410.7 L1507,416.2 L1514.5,420.2 L1510.8,420.2 L1510.8,425.7 L1518.3,429.7 L1514.6,429.7 L1514.6,435.2 L1522.1,439.2 L1544.7,439.2 L1533.5,721 L1487,721 L1487,671.1 L1485.2,669.4 L1485.2,623.2 C1485.2,622.4 1484.6,621.8 1483.8,621.8 C1483,621.8 1482.4,622.4 1482.4,623.2 L1482.4,666.7 L1477.7,662.2 C1477.7,662.2 1477.1,662.2 1476,662.1 L1475.9,661.8 L1475.9,623.2 C1475.9,622.4 1475.3,621.8 1474.5,621.8 C1473.7,621.8 1473.1,622.4 1473.1,623.2 L1473.1,655.3 L1460,624.7 L1460,619.3 C1460,618.5 1459.4,617.9 1458.6,617.9 C1457.8,617.9 1457.2,618.5 1457.2,619.3 L1457.2,623 L1425.4,636 L1419.3,624.4 L1419.3,619.3 C1419.3,618.5 1418.7,617.9 1417.9,617.9 C1417.1,617.9 1416.5,618.5 1416.5,619.3 L1416.5,623.1 L1381.5,642.1 L1374.9,624.9 L1374.9,619.3 C1374.9,618.5 1374.3,617.9 1373.5,617.9 C1372.7,617.9 1372.1,618.5 1372.1,619.3 L1372.1,623.4 L1337,652.8 L1330.5,626 L1330.5,619.3 C1330.5,618.5 1329.9,617.9 1329.1,617.9 C1328.3,617.9 1327.7,618.5 1327.7,619.3 L1327.7,623.8 L1302.7,655.9 C1300.1,655.9 1297.5,655.8 1294.9,655.8 L1286.1,625.4 L1286.1,619.2 C1286.1,618.4 1285.5,617.8 1284.7,617.8 C1283.9,617.8 1283.3,618.4 1283.3,619.2 L1283.3,624.1 L1264.6,655.7 C1263.4,655.7 1262.1,655.7 1260.9,655.7 C1259.6,655.7 1258.4,655.7 1257.2,655.7 L1238.5,624.1 L1238.5,619.2 C1238.5,618.4 1237.9,617.8 1237.1,617.8 C1236.3,617.8 1235.7,618.4 1235.7,619.2 L1235.7,625.4 L1226.9,655.8 C1224.3,655.8 1221.7,655.8 1219.1,655.9 L1194.1,623.8 L1194.1,619.3 C1194.1,618.5 1193.5,617.9 1192.7,617.9 C1191.9,617.9 1191.3,618.5 1191.3,619.3 L1191.3,626 L1184.8,652.8 L1149.7,623.4 L1149.7,619.3 C1149.7,618.5 1149.1,617.9 1148.3,617.9 C1147.5,617.9 1146.9,618.5 1146.9,619.3 L1146.9,624.9 L1140.3,642.1 L1105.3,623.1 L1105.3,619.3 C1105.3,618.5 1104.7,617.9 1103.9,617.9 C1103.1,617.9 1102.5,618.5 1102.5,619.3 L1102.5,624.4 L1096.4,636 L1064.6,623 L1064.6,619.3 C1064.6,618.5 1064,617.9 1063.2,617.9 C1062.4,617.9 1061.8,618.5 1061.8,619.3 L1061.8,624.7 L1049.4,653.6 L1049.4,623.2 C1049.4,622.4 1048.8,621.8 1048,621.8 C1047.2,621.8 1046.6,622.4 1046.6,623.2 L1046.6,660.1 L1045.7,662.1 C1044.6,662.2 1044,662.2 1044,662.2 L1040,666 L1040,623.1 C1040,622.3 1039.4,621.7 1038.6,621.7 C1037.8,621.7 1037.2,622.3 1037.2,623.1 L1037.2,668.6 L1034.7,671 L1034.7,731.9 L979.8,731.9 L979.8,637.5 C979.8,637.5 978,638.2 974.6,639.2 L974.6,609.4 C974.6,609.4 972.5,610.2 968.5,611.3 L968.5,561.6 C968.5,561.6 966,562.6 961.2,563.5 L961.2,500.6 C961.2,500.6 946.1,524.6 924.5,523.1 C903,521.7 900,515.7 900,515.7 L893.4,555.3 C884.6,551.2 882.8,547.5 882.8,547.5 L867.9,608.2 C856.3,604.6 850.7,601.3 850.7,601.3 L850.7,632.7 C844.6,630.3 841.6,628.5 841.6,628.5 L841.6,710.5 L817.2,710.5 L817.2,706.7 L813.5,706.7 L813.5,700.6 L810,700.6 L810,692.6 C810,685 800.8,678.7 788.9,677.8 L788.9,672.6 L787.3,672.6 L787.3,655.7 L777.5,655.7 L777.5,660.8 L785.2,660.8 L785.2,672.6 L783.6,672.6 L783.6,677.8 C771.8,678.6 762.5,685 762.5,692.6 L762.5,700.6 L758.8,700.6 L758.8,706.7 L755,706.7 L755,710.5 L734.9,710.5 L734.9,705.1 L727.1,705.1 L727.1,702 L723.1,702 L723.1,696.6 L717.5,696.6 L717.5,694.2 L710.7,694.2 L699.5,685.2 L696.2,685.2 L696.2,677.8 L693.6,677.8 L693.6,661.8 L701.2,661.8 L701.2,656.5 L693.6,656.5 L693.6,655.6 L692.4,655.6 L692.4,677.8 L689.8,677.8 L689.8,685.2 L660.6,685.2 L660.6,682 L654.2,682 L654.2,685.2 L621.1,685.2 L621.1,680.7 L610.5,680.7 L610.5,619.9 L606.6,619.9 L606.6,586.3 L604.7,586.3 L604.7,562.2 L606.6,562.2 L606.6,557.4 L604.7,557.4 L604.7,540.5 C604.7,533.7 599.7,528.1 593.2,527 L593.2,524 L596.9,524 L596.9,521.9 L591.5,521.9 L591.5,487.9 L599.1,487.9 L599.1,482.6 L591.5,482.6 L591.5,481.7 L590.3,481.7 L590.3,522 L584.9,522 L584.9,524.1 L588.6,524.1 L588.6,527 C582.1,528.1 577.1,533.7 577.1,540.5 L577.1,557.4 L575.2,557.4 L575.2,562.2 L577.1,562.2 L577.1,586.3 L575.2,586.3 L575.2,619.9 L571.3,619.9 L571.3,680.7 L566.1,680.7 L566.1,666.5 L562.4,660.3 L553.1,660.3 L553.1,650.9 L551.5,650.9 L551.5,644.6 L549.9,644.6 L549.9,639.4 L537.6,639.4 L537.6,644.6 L536,644.6 L536,650.9 L534.4,650.9 L534.4,660.3 L398.2,660.3 L398.2,609.6 L400.1,609.6 L400.1,605 L396.4,605 L396.4,576.7 L398.3,576.7 L398.3,572.4 L394.6,572.4 L394.6,568.3 L398.3,568.3 L398.3,564 L394.6,564 L394.6,559.9 L388.5,559.9 L388.5,545.6 L386.6,545.6 L386.6,540.5 L384.7,540.5 L384.7,535 L382.8,535 L382.8,525.1 L385,525.1 L385,521.8 L382.8,521.8 L382.8,510.2 L386,510.2 L386,508 L382.8,508 L382.8,491.7 L382.3,491.7 L382.3,483.8 L381.3,483.8 L381.3,491.7 L380.8,491.7 L380.8,503.3 L378,503.3 L378,485.5 L376.2,485.5 L376.2,479.5 L373.9,479.5 L373.9,435 L372,435 L372,479.4 L369.7,479.4 L369.7,485.4 L367.9,485.4 L367.9,503.2 L365.1,503.2 L365.1,491.6 L364.6,491.6 L364.6,483.7 L363.6,483.7 L363.6,491.6 L363.1,491.6 L363.1,508 L360,508 L360,510.3 L363.2,510.3 L363.2,521.9 L361,521.9 L361,525.2 L363.2,525.2 L363.2,535.1 L361.3,535.1 L361.3,540.5 L359.4,540.5 L359.4,545.6 L357.5,545.6 L357.5,559.9 L351.4,559.9 L351.4,564 L347.7,564 L347.7,568.3 L351.4,568.3 L351.4,572.4 L347.7,572.4 L347.7,576.7 L349.6,576.7 L349.6,605 L345.9,605 L345.9,609.6 L347.8,609.6 L347.8,660.3 L214.5,660.3 L214.5,650.9 L212.9,650.9 L212.9,644.6 L211.3,644.6 L211.3,639.4 L199,639.4 L199,644.6 L197.4,644.6 L197.4,650.9 L195.8,650.9 L195.8,660.3 L188.3,660.3 L184.6,666.5 L184.6,678.1 L181.2,678.1 L181.2,647.1 L177.3,647.1 L177.3,613.5 L175.4,613.5 L175.4,589.4 L177.3,589.4 L177.3,584.6 L175.4,584.6 L175.4,567.7 C175.4,560.9 170.4,555.3 163.9,554.2 L163.9,551.3 L167.6,551.3 L167.6,549.2 L162.2,549.2 L162.2,515.2 L169.8,515.2 L169.8,509.9 L162.2,509.9 L162.2,509 L161,509 L161,549.3 L155.6,549.3 L155.6,551.4 L159.3,551.4 L159.3,554.3 C152.8,555.4 147.8,561 147.8,567.8 L147.8,584.7 L145.9,584.7 L145.9,589.5 L147.8,589.5 L147.8,613.6 L145.9,613.6 L145.9,647.2 L142,647.2 L142,681.9 L116.9,681.9 L87.7,723.7 L87.7,708 L85.8,708 L85.8,683.7 L87.7,683.7 L87.7,680.3 L85.8,680.3 L85.8,652.2 L87.7,652.2 L87.7,648.8 L85.8,648.8 L85.8,635.6 L87.7,635.6 L87.7,632.2 L85.8,632.2 L85.8,617.1 L82.1,617.1 L82.1,596 L77.4,596 L71.8,527.6 L70,527.6 L64.8,596 L60.1,596 L60.1,617.3 L56.4,617.3 L56.4,632.4 L54.5,632.4 L54.5,635.8 L56.4,635.8 L56.4,649 L54.5,649 L54.5,652.4 L56.4,652.4 L56.4,680.5 L54.5,680.5 L54.5,683.9 L56.4,683.9 L56.4,706.3 L44.3,694.8 L44.3,681.3 L40.5,681.3 L40.5,686.1 L37.9,686.1 L37.9,683 L27.1,683 L27.1,685.9 L23.1,685.9 L23.1,683 L18.8,683 L18.8,685.9 L3,685.9 L3,680.4 L0,680.4 L0,738 L2346.9,738 L2346.9,695.3 L2284.3,695.3 Z M154.4,613.5 L150.4,613.5 L150.4,589.4 L154.4,589.4 L154.4,613.5 Z M160.7,613.5 L156.7,613.5 L156.7,589.4 L160.7,589.4 L160.7,613.5 Z M167,613.5 L163,613.5 L163,589.4 L167,589.4 L167,613.5 Z M173.2,613.5 L169.2,613.5 L169.2,589.4 L173.2,589.4 L173.2,613.5 Z M583.7,586.3 L579.7,586.3 L579.7,562.2 L583.7,562.2 L583.7,586.3 Z M589.9,586.3 L585.9,586.3 L585.9,562.2 L589.9,562.2 L589.9,586.3 Z M596.2,586.3 L592.2,586.3 L592.2,562.2 L596.2,562.2 L596.2,586.3 Z M602.4,586.3 L598.4,586.3 L598.4,562.2 L602.4,562.2 L602.4,586.3 Z M1061.9,661.1 C1056.6,661.4 1052.5,661.7 1049.5,661.9 L1049.5,657.1 L1061.9,628.2 L1061.9,661.1 Z M1064.7,660.9 L1064.7,624.5 L1095.8,637.2 L1084,659.8 C1076.6,660.3 1070.1,660.6 1064.7,660.9 Z M1102.5,659 C1096.4,659.3 1090.8,659.5 1085.6,659.8 L1097.1,637.8 L1102.5,640 L1102.5,659 Z M1102.5,638.5 L1097.7,636.6 L1102.5,627.5 L1102.5,638.5 Z M1105.3,624.8 L1139.8,643.5 L1136.4,652.4 L1105.3,639.7 L1105.3,624.8 Z M1105.3,658.9 L1105.3,641.2 L1135.9,653.7 L1134.3,657.8 C1123.8,658.1 1114.1,658.5 1105.3,658.9 Z M1135.9,657.8 L1137.3,654.2 L1145.3,657.5 C1142,657.6 1138.9,657.7 1135.9,657.8 Z M1146.9,656.6 L1137.7,652.8 L1141,644.1 L1146.9,647.3 L1146.9,656.6 Z M1146.9,645.7 L1141.6,642.8 L1146.9,628.8 L1146.9,645.7 Z M1149.7,657.3 L1149.7,648.8 L1164.6,656.9 C1159.5,657.1 1154.6,657.2 1149.7,657.3 Z M1183.9,656.5 C1178.3,656.6 1172.8,656.7 1167.4,656.9 L1149.7,647.3 L1149.7,625.3 L1184.4,654.4 L1183.9,656.5 Z M1185.4,656.5 L1185.7,655.4 L1187,656.5 C1186.4,656.5 1185.9,656.5 1185.4,656.5 Z M1191.3,656.4 C1190.6,656.4 1189.8,656.4 1189.1,656.4 L1186,653.8 L1191.3,631.9 L1191.3,656.4 Z M1194.1,656.3 L1194.1,626.1 L1217.3,656 C1209.4,656.1 1201.6,656.2 1194.1,656.3 Z M1235.7,655.9 C1233.2,655.9 1230.8,655.9 1228.4,656 L1235.7,630.7 L1235.7,655.9 Z M1238.5,655.8 L1238.5,627 L1255.6,655.8 C1249.8,655.8 1244.1,655.8 1238.5,655.8 Z M1283.4,655.8 C1277.8,655.8 1272.1,655.7 1266.3,655.7 L1283.4,626.9 L1283.4,655.8 Z M1286.2,655.9 L1286.2,630.6 L1293.5,655.9 C1291.1,655.9 1288.6,655.9 1286.2,655.9 Z M1327.8,656.3 C1320.3,656.2 1312.6,656.1 1304.6,656 L1327.8,626.1 L1327.8,656.3 Z M1330.6,656.4 L1330.6,632 L1335.9,653.9 L1332.8,656.5 C1332,656.4 1331.3,656.4 1330.6,656.4 Z M1334.9,656.5 L1336.2,655.4 L1336.5,656.5 C1336,656.5 1335.5,656.5 1334.9,656.5 Z M1372.1,657.3 C1367.3,657.2 1362.3,657 1357.2,656.9 L1372.1,648.8 L1372.1,657.3 Z M1372.1,647.3 L1354.4,656.9 C1349.1,656.8 1343.6,656.7 1337.9,656.5 L1337.4,654.3 L1372.1,625.2 L1372.1,647.3 Z M1374.9,628.8 L1380.2,642.8 L1374.9,645.7 L1374.9,628.8 Z M1374.9,647.3 L1380.8,644.1 L1384.1,652.8 L1374.9,656.6 L1374.9,647.3 Z M1376.7,657.5 L1384.7,654.2 L1386.1,657.8 C1382.9,657.7 1379.8,657.6 1376.7,657.5 Z M1416.5,658.9 C1407.7,658.5 1398,658.2 1387.5,657.8 L1385.9,653.7 L1416.5,641.2 L1416.5,658.9 Z M1416.5,639.6 L1385.4,652.3 L1382,643.4 L1416.5,624.7 L1416.5,639.6 Z M1419.3,627.4 L1424.1,636.5 L1419.3,638.4 L1419.3,627.4 Z M1419.3,659 L1419.3,640 L1424.7,637.8 L1436.2,659.8 C1431,659.5 1425.4,659.3 1419.3,659 Z M1457.2,660.9 C1451.8,660.6 1445.3,660.2 1437.8,659.8 L1426,637.2 L1457.1,624.5 L1457.1,660.9 L1457.2,660.9 Z M1473.1,662 C1470.1,661.8 1465.7,661.5 1460,661.1 L1460,628.3 L1473.1,658.9 L1473.1,662 Z M2226.9,569.3 L2262.9,692 C2261.1,691.1 2259.4,690.2 2257.6,689.3 L2226.9,573.4 L2226.9,569.3 Z M2232,601 L2227.6,578 L2257,689 C2255.3,688.2 2253.6,687.3 2251.8,686.5 L2232,601 Z M2251.3,686.3 C2250.2,685.8 2249.1,685.2 2247.9,684.7 L2234.1,612.5 L2251.3,686.3 Z M2221.9,583.9 L2240.5,681.2 C2229.7,676.4 2218.4,671.7 2206.8,667.3 L2221.9,583.9 Z M2135.5,641.4 L2216.8,541.1 L2216.8,544.9 L2145,646.8 C2142.7,646.1 2140.3,645.4 2137.9,644.8 L2135.5,641.4 Z M2137.2,644.5 C2136,644.2 2134.9,643.8 2133.7,643.5 L2135.1,641.7 L2137.2,644.5 Z M2216.8,545.7 L2216.8,550.5 L2154.6,649.7 C2151.6,648.8 2148.5,647.9 2145.5,647 L2216.8,545.7 Z M2216.8,551.4 L2216.8,556.6 L2164.8,652.8 C2161.6,651.8 2158.4,650.8 2155.1,649.8 L2216.8,551.4 Z M2216.8,557.6 L2216.8,562.3 L2175.5,656.4 C2172.1,655.3 2168.7,654.2 2165.2,653.1 L2216.8,557.6 Z M2216.8,563.4 L2216.8,568.7 L2185.6,659.7 C2182.4,658.6 2179.2,657.5 2176,656.4 L2216.8,563.4 Z M2216.8,570.1 L2216.8,574.2 L2215.5,581.5 L2193.3,662.3 C2190.9,661.4 2188.5,660.6 2186.1,659.8 L2216.8,570.1 Z M2214.5,586.8 L2200.3,665 C2198.1,664.2 2195.9,663.4 2193.7,662.6 L2214.5,586.8 Z M2216.8,536 L2216.8,540.4 L2135.2,641 L2129.4,633.1 L2216.8,536 Z M2134.9,641.4 L2133.3,643.4 C2129.8,642.4 2126.3,641.5 2122.8,640.5 L2129.1,633.5 L2134.9,641.4 Z M1951.6,392.4 L2128.8,633.2 L2122.3,640.5 C2121.6,640.3 2120.8,640.1 2120,639.9 L1951.6,398.2 L1951.6,392.4 Z M1951.6,399 L2119.3,639.7 C2114.5,638.4 2109.7,637.2 2104.8,635.9 L1951.6,405.6 L1951.6,399 Z M1951.6,406.4 L2104.2,635.7 C2099,634.4 2093.8,633.1 2088.5,631.9 L1951.6,412.7 L1951.6,406.4 Z M1951.6,413.5 L2087.9,631.7 C2082.7,630.5 2077.5,629.2 2072.2,628.1 L1951.6,421 L1951.6,413.5 Z M1951.6,421.9 L2071.6,627.9 C2066.6,626.8 2061.6,625.7 2056.6,624.6 L1951.6,429.8 L1951.6,421.9 Z M1934.8,400.6 L1934.8,410.5 L1824.7,589.4 C1818.8,588.8 1812.9,588.2 1807,587.6 L1934.8,400.6 Z M1806.5,587.6 C1801.1,587.1 1795.7,586.6 1790.3,586.1 L1934.8,393 L1934.8,399.8 L1806.5,587.6 Z M1934.8,411.5 L1934.8,421.1 L1842.9,591.4 C1837,590.8 1831.1,590.1 1825.2,589.5 L1934.8,411.5 Z M1934.8,422.1 L1934.8,430.5 L1934.1,434.5 L1861.9,593.6 C1855.7,592.9 1849.6,592.2 1843.5,591.5 L1934.8,422.1 Z M1933.8,436.3 L1930.4,454.8 L1880.7,595.8 C1874.6,595.1 1868.5,594.3 1862.4,593.6 L1933.8,436.3 Z M1929.9,457.7 L1919.3,515.9 L1897.5,597.9 C1892.1,597.2 1886.6,596.5 1881.2,595.8 L1929.9,457.7 Z M1918.2,521.6 L1904.2,598.8 C1902.1,598.5 1900,598.3 1897.9,598 L1918.2,521.6 Z M1909.7,630.8 C1933.3,633.9 1957,637.2 1980.3,640.8 L1980.4,641.4 L1907.8,641.4 L1909.7,630.8 Z M1964.9,500 L1996.8,612.9 C1993.2,612.3 1989.6,611.6 1986,611 L1964.9,500 Z M1963.9,494.7 L1962.6,487.6 L2010.5,615.3 C2006.1,614.5 2001.8,613.7 1997.4,612.9 L1963.9,494.7 Z M1962,485 L1957.3,460.1 L2026,618.3 C2021,617.3 2016,616.4 2011,615.4 L1962,485 Z M1956.9,458 L1954,442.9 L2041.3,621.4 C2036.4,620.4 2031.5,619.4 2026.6,618.5 L1956.9,458 Z M1953.6,441.1 L1951.6,430.9 L2056,624.5 C2051.3,623.5 2046.6,622.5 2041.8,621.5 L1953.6,441.1 Z M1943.3,446.5 L1974.3,609.1 C1954.7,605.9 1935,602.9 1915.3,600.2 L1943.3,446.5 Z M1934.8,383.6 L1934.8,392.3 L1789.7,586.1 C1783.8,585.6 1777.9,585 1772.1,584.5 L1934.8,383.6 Z M1917.1,690.6 L1917.1,721 L1718.2,721 L1718.2,611.4 C1773.7,615.3 1836,621.4 1898.6,629.4 L1895.6,646.1 C1895.6,646.2 1895.6,646.4 1895.6,646.5 C1895.6,646.7 1895.5,646.9 1895.5,647.1 C1895.5,647.1 1895.5,647.2 1895.5,647.2 C1895.5,647.4 1895.5,647.5 1895.6,647.7 C1895.6,647.9 1895.6,648.1 1895.7,648.3 C1895.7,648.4 1895.8,648.6 1895.8,648.7 C1895.9,648.9 1895.9,649.1 1896,649.3 C1896.1,649.4 1896.1,649.6 1896.2,649.7 C1896.3,649.9 1896.4,650.1 1896.6,650.3 C1896.6,650.3 1896.6,650.4 1896.7,650.4 L1920.2,681.1 L1917.1,690.6 Z M1932.8,679.3 L1912.4,652.7 L1976.2,652.7 L1956.9,679.3 L1932.8,679.3 Z M1975,721 L1975,690.6 L1971.3,679.3 L1970.9,679.3 L1991.8,650.4 C1991.8,650.4 1991.8,650.3 1991.8,650.3 C1991.9,650.1 1992,649.9 1992.2,649.7 C1992.3,649.6 1992.3,649.5 1992.4,649.4 C1992.5,649.2 1992.6,648.9 1992.6,648.7 C1992.6,648.6 1992.7,648.5 1992.7,648.3 C1992.7,648.1 1992.8,647.9 1992.8,647.7 C1992.8,647.5 1992.9,647.4 1992.9,647.2 C1992.9,647.2 1992.9,647.2 1992.9,647.2 C1992.9,647 1992.9,646.8 1992.8,646.6 C1992.8,646.5 1992.8,646.3 1992.8,646.2 L1992.8,646.1 L1992.2,642.8 C2069.2,655 2141.6,669.8 2196.5,686.5 L2193.2,704.5 C2193,705.4 2193.3,706.4 2193.8,707.2 L2204.5,721.2 L1975,721.2 L1975,721 Z M2213,721 L2200,704.1 L2202.9,688.3 C2218.5,693.2 2232.5,698.3 2244.7,703.4 L2244.8,704.1 L2232.6,721 L2213,721 Z M2264.1,721 L2240.9,721 L2251.1,706.9 C2251.2,706.7 2251.3,706.6 2251.4,706.4 C2256,708.5 2260.2,710.6 2264.1,712.7 L2264.1,721 Z M2263.5,692.3 L2226.9,567.6 L2226.9,562.5 L2269,695.1 C2267.2,694.2 2265.3,693.2 2263.5,692.3 Z M2269.5,695.3 L2226.9,561 L2226.9,558 L2274.1,695.3 L2269.5,695.3 Z M2274.6,695.3 L2226.9,556.6 L2226.9,553 L2279.1,695.3 L2274.6,695.3 Z M2279.7,695.3 L2227,551.6 L2227,549.4 L2283.9,695.3 L2279.7,695.3 Z"></path>
    </symbol>
</svg>