<svg xmlns="http://www.w3.org/2000/svg" viewBox="0 0 76 60">
    <symbol id="logo">
        <title>td_logo</title>
        <path class="cls-1" d="M17.42,14.27H24V51.09a.47.47,0,0,0,.47.46h4.91a.47.47,0,0,0,.47-.46V14.27h6.54a.47.47,0,0,0,.47-.46V9.5A.47.47,0,0,0,36.36,9H17.42A.47.47,0,0,0,17,9.5v4.31A.47.47,0,0,0,17.42,14.27Z"/>
        <path class="cls-1" d="M64.31,5.83a5.82,5.82,0,0,1,5.84,5.82v36.7a5.82,5.82,0,0,1-5.84,5.82H11.69a5.82,5.82,0,0,1-5.84-5.82V11.65a5.82,5.82,0,0,1,5.84-5.82H64.31m0-5.83H11.69A11.69,11.69,0,0,0,0,11.65v36.7A11.69,11.69,0,0,0,11.69,60H64.31A11.69,11.69,0,0,0,76,48.35V11.65A11.69,11.69,0,0,0,64.31,0Z"/>
        <path class="cls-1" d="M48.64,9H40.22a.47.47,0,0,0-.47.47V51.09a.47.47,0,0,0,.47.46h8.42c6.93,0,11-4.18,11-11.78v-19C59.63,13.21,55.57,9,48.64,9Zm5.14,31.32c0,3.51-1.44,6-4.73,6h-3a.47.47,0,0,1-.47-.47V14.74a.47.47,0,0,1,.47-.47h3c3.29,0,4.73,2.45,4.73,6Z"/>
    </symbol>
</svg>