<svg xmlns="http://www.w3.org/2000/svg">
    <symbol id="logo" viewBox="0 0 76 60">
        <title>td_logo</title>
        <path d="M17.42,14.27H24V51.09a.47.47,0,0,0,.47.46h4.91a.47.47,0,0,0,.47-.46V14.27h6.54a.47.47,0,0,0,.47-.46V9.5A.47.47,0,0,0,36.36,9H17.42A.47.47,0,0,0,17,9.5v4.31A.47.47,0,0,0,17.42,14.27Z"/>
        <path d="M64.31,5.83a5.82,5.82,0,0,1,5.84,5.82v36.7a5.82,5.82,0,0,1-5.84,5.82H11.69a5.82,5.82,0,0,1-5.84-5.82V11.65a5.82,5.82,0,0,1,5.84-5.82H64.31m0-5.83H11.69A11.69,11.69,0,0,0,0,11.65v36.7A11.69,11.69,0,0,0,11.69,60H64.31A11.69,11.69,0,0,0,76,48.35V11.65A11.69,11.69,0,0,0,64.31,0Z"/>
        <path d="M48.64,9H40.22a.47.47,0,0,0-.47.47V51.09a.47.47,0,0,0,.47.46h8.42c6.93,0,11-4.18,11-11.78v-19C59.63,13.21,55.57,9,48.64,9Zm5.14,31.32c0,3.51-1.44,6-4.73,6h-3a.47.47,0,0,1-.47-.47V14.74a.47.47,0,0,1,.47-.47h3c3.29,0,4.73,2.45,4.73,6Z"/>
    </symbol>
    <symbol id="logo_wappen" viewBox="0 0 73 100">
        <title>td_logo_wappen</title>
        <path d="M22.3 7.8h-2.8l-1.4 2.5-1.4-2.5h-2.8l1.4-2.4L13.9 3h2.8L18.1.5 19.5 3h2.8l-1.4 2.4 1.4 2.4zm29.1 0h2.8l1.4 2.5L57 7.8h2.8l-1.4-2.4L59.8 3H57L55.6.5 54.2 3h-2.8l1.4 2.4-1.4 2.4zM73 95s-2.4-4.3-5.2-16.6c-2.5-11.4-1.6-22.6-1.6-22.6v-8.4h-4.8v4.4h-4v-4.4h-4.7v4.4h-4.1v-4.4h-4.9v4.4h-4.4v-4.4h-4.8v4.4H30v-4.4h-4.9v4.4H21v-4.4h-4.7v4.4h-4v-4.4H6.8v8.4s.9 11.3-1.6 22.6C2.4 90.8 0 95 0 95v5h73v-5zm-11.9-6.7c0 4.2-3.4 7.5-7.6 7.5h-34c-4.2 0-7.6-3.4-7.6-7.5V64.5c0-4.2 3.4-7.5 7.6-7.5h34c4.2 0 7.6 3.4 7.6 7.5v23.8z"/>
        <path d="M43.6 66.2h-1.9c-.2 0-.3.1-.3.3v20.1c0 .2.1.3.3.3h1.9c2.1 0 3.1-1.6 3.1-3.9V70c0-2.2-.9-3.8-3.1-3.8z"/>
        <path d="M53.5 60.8h-34c-2.1 0-3.8 1.7-3.8 3.8v23.7c0 2.1 1.7 3.8 3.8 3.8h34c2.1 0 3.8-1.7 3.8-3.8V64.5c0-2-1.7-3.7-3.8-3.7zm-17.8 5.1c0 .2-.1.3-.3.3h-4.2V90c0 .2-.1.3-.3.3h-3.2c-.2 0-.3-.1-.3-.3V66.2h-4.2c-.2 0-.3-.1-.3-.3v-2.8c0-.2.1-.3.3-.3h12.2c.2 0 .3.1.3.3v2.8zm14.8 16.8c0 4.9-2.6 7.6-7.1 7.6H38c-.2 0-.3-.1-.3-.3V63.1c0-.2.1-.3.3-.3h5.4c4.5 0 7.1 2.7 7.1 7.6v12.3zm11.2-70.4v3.8h-2v-3.8h-2.6v3.8h-1.7v-3.8h-2.7v3.8h-1.8v-3.8h-2.6v7.4l.9.5V45h14.2V20.2l1.1-.5v-7.4zm-17.4 4.2c0-3-2-5.5-4.5-6.7h.1s.2-3-2.5-3.5V3.2h2.1V1.8h-2.1V0H36v1.8h-2v1.4h2.1v3.2c-2.7.5-2.5 3.5-2.5 3.5h.1c-2.5 1.2-4.5 3.7-4.5 6.7h-1.1v3.3l.9.3h.1V45h15.3V20.1h.1l.9-.3v-3.3h-1.1zm-21.5-4.2v3.8H21v-3.8h-2.7v3.8h-1.7v-3.8h-2.7v3.8h-2v-3.8H9.2v7.4l1.1.5V45h14.2V20.2l.9-.5v-7.4z"/>
    </symbol>
</svg>